<svg width="500" height="500" viewBox="0 0 500 500" fill="none" xmlns="http://www.w3.org/2000/svg">
<path d="M131.835 145.614C130.283 145.465 127.715 147.951 126.215 148.726C125.048 149.328 122.459 150.64 121.185 150.625C120.371 150.615 118.625 149.757 117.781 149.493C117.339 149.642 116.976 149.771 116.613 150.074C115.951 150.626 115.501 151.325 115.452 152.202C115.369 153.689 116.629 154.778 117.585 155.735C119.141 156.83 120.973 157.477 122.874 157.594C125.565 157.759 128.533 156.994 130.552 155.156C132.284 153.578 133.1 151.488 133.144 149.17C133.171 147.75 132.83 146.633 131.835 145.614Z" fill="#AD1CAD"/>
<path d="M346.001 217.273L345.689 217.239C345.024 217.267 344.77 217.37 344.283 217.769C344.274 218.202 344.319 218.547 344.577 218.912C346.187 221.189 349.251 222.755 351.744 223.82C362.125 228.256 374.267 229.209 385.381 230.614C386.069 230.442 386.6 230.317 387.177 229.873L387.059 229.299C385.718 228.12 383.988 227.6 382.311 227.095C377.981 225.793 373.453 225.389 369.012 224.593C365.666 223.994 362.29 223.272 359.022 222.33C354.53 221.037 350.322 219.006 346.001 217.273Z" fill="#AD1CAD"/>
<path d="M128.635 57.0939C128.252 57.0367 127.842 56.9734 127.455 57.0116C126.658 57.0903 125.824 57.6853 125.382 58.3337C124.325 59.8863 124.543 61.8942 124.319 63.6647C124.044 65.8405 123.658 68.0947 123.192 70.2355C122.106 75.2182 120.449 79.9956 118.719 84.783C117.905 87.0388 115.6 91.5688 116.158 93.7913C116.647 94.4043 117.065 94.5178 117.781 94.7325C118.318 94.8723 118.689 94.9209 119.234 94.7709C120.795 94.3422 121.823 93.1886 122.621 91.8509C123.876 89.7494 124.622 87.4927 125.471 85.2107C127.23 80.4798 128.545 75.627 129.507 70.6736C130.053 67.8611 130.718 64.038 129.982 61.2239C129.575 59.6679 129.878 58.2619 128.635 57.0939Z" fill="#AD1CAD"/>
<path d="M299.788 242.565L298.867 242.362C298.191 242.612 298.063 242.572 297.708 243.185C297.898 243.985 298.184 244.508 298.694 245.156C300.383 247.297 302.607 249.009 304.749 250.665C312.7 256.81 321.95 261.06 331.398 264.334C335.149 265.634 338.793 266.916 342.774 267.31L343.373 267.265C344.083 266.672 343.247 265.743 343.54 264.938C343.665 264.595 344.367 264.39 344.595 263.765C343.6 261.91 336.734 260.439 334.535 259.673C326.596 256.91 318.521 253.835 311.189 249.692C307.277 247.481 303.823 244.582 299.788 242.565Z" fill="#AD1CAD"/>
<path d="M68.0115 63.0448L67.4151 62.9603C66.9527 63.1285 66.6167 63.2771 66.2397 63.6019C65.2389 64.4628 64.7635 65.2114 64.6248 66.5162C65.0578 68.1385 66.131 69.4941 66.9983 70.9085C70.1825 76.0985 72.8718 81.7115 75.4387 87.2337C77.0718 90.7469 78.5929 94.4272 80.5575 97.7693C81.3454 99.1089 82.3938 100.05 83.547 101.057L84.4703 101.524C85.1612 101.801 85.5858 102.031 86.2773 101.752C86.5208 100.595 86.192 99.5106 85.94 98.3784C85.3807 95.87 84.5485 93.4279 83.6837 91.0106C81.5616 85.0763 79.0748 79.1978 76.2136 73.5829C74.3232 69.8729 71.9335 64.9047 68.0115 63.0448Z" fill="#AD1CAD"/>
<path d="M25.2301 92.7225L24.2625 92.6655C23.6712 93.0115 23.1542 93.5087 22.9002 94.1632C22.6124 94.9053 22.8208 95.3336 23.1125 96.0229C25.0054 97.6701 27.545 98.676 29.7205 99.941C31.9983 101.266 34.0417 102.955 35.9841 104.73C39.8429 108.257 42.8083 112.728 45.8102 116.981C47.6562 119.597 49.3753 122.563 51.9884 124.498C53.4385 125.571 55.1289 126.122 56.8454 126.586C57.3312 126.612 57.9127 126.594 58.3711 126.411C59.1251 126.11 59.4396 125.9 59.7073 125.158C59.2749 123.668 58.5671 122.432 57.7342 121.136C55.5698 117.767 52.8831 114.673 50.3338 111.589C43.4477 103.26 36.2393 95.1379 25.2301 92.7225Z" fill="#AD1CAD"/>
<path d="M387.379 234.382C386.275 234.043 385.411 234.324 384.347 234.706C382.284 235.445 380.412 236.89 378.39 237.802C373.417 240.048 367.734 241.479 362.374 242.452C350.83 244.548 338.652 243.657 327.318 240.795C325.481 240.33 323.652 239.838 321.854 239.244C319.415 238.439 317.106 237.509 314.494 237.708L314.358 238.101C314.885 239.285 315.864 239.776 316.91 240.457C321.72 243.216 326.775 245.226 332.185 246.477C344.81 249.395 357.949 248.626 370.308 244.904C374.906 243.519 379.311 241.935 383.389 239.351C385.021 238.317 387.29 236.836 387.739 234.878L387.379 234.382Z" fill="#AD1CAD"/>
<path d="M440.068 185.039C439.319 185.145 438.331 185.823 437.658 186.197C435.93 187.158 434.242 188.198 432.433 189.006C430.184 190.011 427.651 190.722 425.259 191.313C423.754 197.117 421.156 201.184 416.511 205.048C407.478 212.565 392.456 214.612 381.056 213.615C374.056 213.002 367.247 211.43 360.27 210.736C361.612 212.304 362.864 213.39 364.574 214.523L368.926 216.528C383.239 222.058 401.144 223.306 415.332 216.923C423.559 213.223 430.577 207.337 435.502 199.778C436.823 197.75 438.053 195.836 438.912 193.567C439.808 191.2 441.178 187.5 440.068 185.039Z" fill="#AD1CAD"/>
<path d="M323.791 335.3C323.344 335.16 323.138 335.176 322.681 335.211C321.91 335.648 321.603 335.928 321.109 336.664C321.019 337.425 320.997 338.072 321.312 338.787C322.427 341.317 324.432 343.582 326.014 345.834C328.872 349.904 331.705 354.012 334.438 358.168C339.671 366.124 344.786 374.163 349.953 382.163C355.938 391.432 361.631 400.81 368.746 409.284C372.153 413.342 376.245 417.923 381.294 419.881C383.678 420.806 385.552 420.584 387.859 419.607C389.436 418.536 390.556 417.294 391.796 415.857L390.898 415.934C390.229 415.987 389.488 416.083 388.827 415.928C387.792 415.684 386.668 414.869 385.773 414.302C383.208 412.679 381.103 410.631 378.974 408.485C373.257 402.724 368.577 395.957 363.962 389.313C360.587 384.455 357.16 379.613 353.686 374.824C347.379 366.129 340.892 357.553 334.567 348.867C332.464 345.98 330.496 343.025 328.347 340.168C326.961 338.326 325.775 336.554 323.791 335.3Z" fill="#AD1CAD"/>
<path d="M474.191 144.15C471.174 147.066 467.435 149.932 463.713 151.856C462.101 152.689 460.413 153.242 458.777 154.009C458.655 154.067 457.886 154.395 457.847 154.45C457.641 154.739 457.557 156.561 457.466 157.035C456.738 160.795 454.583 164.852 451.572 167.321C446.221 171.709 440.153 174.678 433.699 177.09C419.025 182.574 404.401 184.059 388.859 184.045C384.511 184.042 379.955 184.247 375.643 183.714L375.276 183.667C376.294 184.722 377.228 185.53 378.478 186.303C384.008 189.187 391.866 189.258 398.019 189.477C409.303 189.878 420.504 187.722 431.416 185.192C435.354 184.278 439.153 183.52 442.913 181.958C449.687 179.142 455.942 175.172 461.274 170.128C468.604 163.196 473.928 154.387 474.191 144.15Z" fill="#AD1CAD"/>
<path d="M477.565 121.135C475.183 123.485 472.873 125.849 470.146 127.809C465.669 131.029 460.549 133.681 455.681 136.267C446.454 141.169 436.812 146.024 426.994 149.619C420.114 152.139 413.166 153.921 406.154 155.976C404.294 156.522 402.132 157.336 401.167 159.128C401.136 160.255 401.002 160.345 401.774 161.235C402.752 161.867 403.994 161.864 405.121 161.863C409.184 161.858 413.284 161.244 417.305 160.69C425.679 159.537 433.757 157.676 441.869 155.341C451.595 152.54 463.238 148.768 470.466 141.343C475.963 135.696 477.603 128.794 477.565 121.135Z" fill="#AD1CAD"/>
<path d="M135.633 125.033C124.917 124.846 114.597 126.618 105.251 132.104C99.651 135.392 94.9034 139.613 91.0739 144.847C89.5762 146.895 88.0291 149.304 87.4424 151.796C87.122 153.157 86.9097 155.179 87.6416 156.361C88.8111 156.16 89.683 154.017 90.2528 153.036C92.8359 148.589 96.2682 145.049 100.11 141.662C112.011 131.168 128.404 128.865 143.712 129.927C162.576 131.236 178.247 139.276 191.864 152.146C195.636 155.711 199.05 159.624 202.476 163.516C209.083 171.298 215.909 178.825 222.96 186.207C225.779 189.158 228.562 192.078 231.545 194.871C233.593 196.789 235.985 199.005 238.648 200.015C239.305 200.264 239.447 200.367 240.076 200.087C240.401 199.614 240.59 199.392 240.637 198.798C240.711 197.864 238.897 196.476 238.211 195.831C223.53 182.017 211.628 165.686 197.604 151.264C184.723 138.018 168.308 128.283 149.811 125.718C145.134 125.071 140.347 125.102 135.633 125.033Z" fill="#AD1CAD"/>
<path d="M165.349 242.317L165.034 242.349C164.656 242.438 164.11 242.723 163.904 243.039C163.488 243.676 163.494 244.543 163.624 245.275C164.261 248.871 166.977 252.325 168.807 255.424C173.045 262.596 177.837 269.155 182.912 275.747C194.272 290.503 207.284 303.83 222.326 314.849C244.104 330.804 269.217 341.144 295.013 348.571C303.067 350.89 312.715 353.895 321.178 352.597L322.433 352.059C323.093 351.634 323.257 351.005 323.471 350.301C322.498 349.413 318.013 349.463 316.397 349.147C308.24 347.554 300.188 345.563 292.195 343.285C268.523 336.539 245.756 326.43 225.854 311.825C213.801 302.979 202.256 291.705 192.906 280.02C187.851 273.701 182.983 267.203 178.494 260.47C175.019 255.257 171.894 249.668 168.077 244.707C167.263 243.648 166.611 242.809 165.349 242.317Z" fill="#AD1CAD"/>
<path d="M86.7746 158.955C79.5493 158.79 72.2139 160.845 66.8308 165.869C64.7822 167.78 63.209 169.917 60.9892 171.71C68.4144 178.234 77.4024 181.586 87.1646 182.408C88.4702 182.517 90.7858 181.88 91.8511 182.382C95.0665 183.897 98.0339 186.807 101.047 188.803C107.246 192.908 113.601 196.175 120.444 199.055L132.764 203.14L134.929 200.925L95.5907 180.522C97.4921 179.655 99.7445 179.056 101.513 177.97C102.866 177.14 103.915 175.535 104.211 173.982C104.678 171.539 102.94 168.655 101.526 166.76C98.2475 162.366 92.0614 159.686 86.7746 158.955Z" fill="#AD1CAD"/>
<path d="M349.51 356.624L348.962 356.48C347.939 356.774 347.089 357.728 346.303 358.425C350.447 363.239 356.611 367.064 361.676 370.857C373.053 379.378 384.673 387.577 395.983 396.189C408.963 406.071 421.782 416.195 434.135 426.855C437.54 429.793 440.675 433.039 444.097 435.993C441.579 437.363 438.012 439.635 435.053 439.583C433.684 439.559 432.185 438.802 430.997 438.175C423.892 434.425 419.112 426.865 414.297 420.686C412.087 417.849 409.762 415.108 407.536 412.286C404.345 408.241 400.272 402.017 395.073 400.579C393.328 400.097 392.451 400.246 390.898 401.216C389.296 402.218 388.332 403.769 387.926 405.586C387.237 408.666 388.537 410.803 390.157 413.273C391.216 412 392.301 411.161 393.657 410.236C396.382 412.2 398.703 414.878 401.008 417.309C405.056 421.691 409.264 425.922 413.32 430.296C415.839 433.012 418.311 435.772 420.827 438.491C421.733 439.469 422.864 440.992 423.992 441.691C427.965 444.151 432.7 444.212 437.12 443.082C441.569 441.945 446.63 439.002 451.273 439.448C453.993 439.711 456.6 440.501 459.298 440.784C465.142 441.396 469.76 439.874 474.319 436.28C469.736 435.734 465.019 437.679 460.361 436.693C455.201 435.602 450.595 433.15 446.216 430.269C437.595 424.599 430.04 417.35 421.98 410.944C416.35 406.471 410.761 401.93 405.038 397.574C393.909 389.103 382.475 381.045 371.206 372.761C367.224 369.835 363.169 366.954 359.252 363.946C356.059 361.493 352.931 358.748 349.51 356.624Z" fill="#AD1CAD"/>
<path d="M472.824 115.612C472.586 115.55 472.531 115.524 472.251 115.517C469.912 115.464 466.834 116.559 464.69 117.385C459.41 119.416 454.426 122.154 449.331 124.586C441.067 128.53 432.748 132.301 424.285 135.8C414.596 139.806 404.719 143.528 394.824 147.001C372.484 154.841 350.061 162.449 327.705 170.256C313.219 175.315 298.57 180.123 284.306 185.783C277.441 188.507 270.435 191.176 263.973 194.776C262.425 195.639 260.399 196.555 259.177 197.849L259.673 198.13C264.714 198.705 270.569 198.028 275.464 196.7C284.685 194.198 293.684 190.42 302.64 187.101C317.222 181.698 331.811 176.311 346.376 170.861C360.328 165.64 374.308 160.477 388.327 155.437C400.231 151.158 412.186 147.066 423.869 142.201C438.958 135.918 453.392 128.498 467.398 120.089C468.898 119.189 472.732 117.539 473.371 115.991L472.824 115.612Z" fill="#AD1CAD"/>
<path d="M262.554 202.148C262.175 202.06 262.183 201.998 261.847 202.114C260.525 202.569 259.567 203.998 258.969 205.188C257.799 207.514 257.633 209.861 257.693 212.42C257.857 219.323 259.816 226.656 261.91 233.211C266.409 247.293 273.371 260.427 281.996 272.417C285.807 277.716 290.106 282.777 294.256 287.817C301.274 296.34 308.421 304.714 315.881 312.858C319.695 317.023 323.68 321.037 327.555 325.147C331.996 329.857 335.476 335.361 340.202 339.81C343.513 342.927 347.409 345.543 351.06 348.245C354.947 351.121 358.766 354.121 362.565 357.112C369.048 362.216 375.42 367.476 382.011 372.442C397.823 384.355 414.091 395.703 430.259 407.127C434.319 409.996 438.42 412.823 442.418 415.776C446.734 418.965 451.007 422.302 455.51 425.224C458.882 427.412 462.593 429.327 466.166 431.17C467.904 432.067 471.555 433.924 473.482 433.166C473.981 432.97 473.894 432.935 474.1 432.498C473.58 432.161 473.142 431.789 472.677 431.383L472.882 431.226L475.578 431.718C476.415 431.849 476.961 431.883 477.655 431.383L477.601 430.763C475.261 427.094 469.611 424.848 465.936 422.666C461.88 420.258 457.605 417.696 453.784 414.95C450.729 412.823 447.465 410.901 444.355 408.849C434.396 402.276 424.427 395.578 414.712 388.653C411.298 386.219 407.978 383.605 404.596 381.124C391.907 371.815 379.251 362.444 367.25 352.241C363.204 348.801 359.421 345 355.51 341.403C341.345 328.373 327.475 314.788 314.574 300.502C309.619 295.015 304.789 289.183 300.318 283.298C299.206 281.833 296.729 279.136 296.825 277.278C299.251 276.04 304.701 277.326 307.404 277.526C309.723 277.698 312.087 277.704 314.412 277.66C324.004 277.48 334.288 276.139 342.892 271.736C341.921 271.105 340.211 270.546 339.043 270.565C334.686 270.634 330.309 272.032 326.038 272.791C320.809 273.719 315.093 274.006 309.781 273.711C299.449 273.138 290.132 270.571 283.041 262.582C280.218 259.4 277.953 255.598 275.828 251.937C267.15 236.979 261.624 219.559 262.554 202.148Z" fill="#AD1CAD"/>
</svg>
