<svg width="500" height="500" viewBox="0 0 500 500" fill="none" xmlns="http://www.w3.org/2000/svg">
<path d="M121.62 328.283C126.901 332.289 131.448 336.441 135.627 341.579C137.527 343.915 139.382 346.365 140.634 349.121C141.367 350.734 141.782 352.518 142.239 354.224C138.208 350.196 135.066 345.524 131.622 341.017C128.345 336.729 124.924 332.551 121.62 328.283Z" fill="#AD1CAD"/>
<path d="M94.7685 90.1485C96.1855 90.058 97.6044 90.0287 98.9907 90.4037C99.9635 90.6674 100.896 91.2501 101.337 92.1895C101.515 92.5684 101.381 92.6908 101.265 93.0574C99.1958 94.5385 95.4822 93.9819 92.9954 94.3679C91.4294 94.6108 89.8985 95.0899 88.3839 95.5457L83.9762 97.0951C83.3738 96.5997 82.707 96.1726 82.4108 95.4265C82.5358 95.1641 82.6504 94.9207 82.8353 94.6941C83.5607 93.8061 84.7348 93.2286 85.7493 92.7384C88.6561 91.3347 91.5778 90.5541 94.7685 90.1485Z" fill="#AD1CAD"/>
<path d="M162.565 86.7358C163.792 86.446 165.691 86.6173 166.956 86.7345C169.923 87.0098 173.221 87.5561 175.225 89.9662C175.373 90.6876 175.366 90.6707 175.009 91.3171C173.419 92.0411 169.492 90.6186 167.623 90.3321C165.294 90.2019 163.044 90.0684 160.712 90.2214C158.59 90.3601 156.5 90.7553 154.375 90.8236C153.848 90.3679 153.608 90.2397 153.381 89.5671L153.593 89.2826C155.312 87.1837 160.06 86.991 162.565 86.7358Z" fill="#AD1CAD"/>
<path d="M89.4049 166.35C89.8939 166.301 89.8386 166.266 90.3387 166.492L90.3712 167.448C89.724 168.602 88.5753 169.291 87.4579 169.947C84.3629 171.765 80.8564 172.972 77.596 174.47C74.6091 175.841 71.7037 177.705 68.5439 178.626C68.1416 178.504 67.9218 178.292 67.5951 178.037C67.5058 177.576 67.4043 177.563 67.672 177.134C68.2214 176.257 69.5249 175.5 70.3577 174.894C75.9675 170.815 82.651 167.904 89.4049 166.35Z" fill="#AD1CAD"/>
<path d="M95.7883 107.682C99.0662 107.434 101.664 107.798 104.464 109.638C108.27 112.139 111.629 115.796 112.478 120.393C112.996 123.203 112.573 126.75 110.8 129.055C107.872 132.862 103.768 133.858 99.2492 134.395C96.0585 134.603 92.0434 133.684 89.2076 132.178C86.194 130.578 83.7216 127.137 82.7748 123.884C82.0057 121.243 82.6517 118.16 83.9957 115.82C86.5925 111.298 90.9156 108.993 95.7883 107.682Z" fill="#AD1CAD"/>
<path d="M106.615 120.94C106.975 121.048 107.188 121.297 107.404 121.606C107.886 122.294 107.839 123.697 107.733 124.479C107.421 126.77 105.93 128.337 104.195 129.688L103.585 130.063L103.276 129.85C104.244 128.292 105.035 126.755 105.48 124.968C105.819 123.598 105.947 122.199 106.615 120.94Z" fill="#F5F5F5"/>
<path d="M90.7131 116.057L91.1116 115.992C91.5551 116.546 91.2829 118.175 91.2588 118.93C91.1989 120.803 91.2243 122.663 91.4548 124.525C91.7257 126.711 92.481 128.478 93.3926 130.467C92.5409 130.135 91.7309 129.374 90.9931 128.824C89.9773 127.86 88.9986 126.77 88.2986 125.546C87.3342 123.86 86.5737 121.77 87.135 119.819C87.6513 118.025 89.1614 116.919 90.7131 116.057Z" fill="#F5F5F5"/>
<path d="M159.223 104.752C162.04 104.582 164.793 105.17 167.324 106.412C171.079 108.254 176.059 111.849 177.352 116.037C178.208 118.811 177.318 121.753 176.051 124.251C173.549 129.185 168.92 131.874 163.834 133.514C160.378 134.447 157.285 134.309 154.119 132.57C150.379 130.517 147.154 126.621 146.055 122.465C145.163 119.091 146.064 115.474 147.782 112.516C150.259 108.251 154.597 105.964 159.223 104.752Z" fill="#AD1CAD"/>
<path d="M170.203 116.301C171.177 116.384 172.187 117.107 172.905 117.735C173.34 118.115 173.718 118.591 173.725 119.189C173.761 122.312 170.766 125.371 168.683 127.351L166.066 129.083C168.14 126.447 169.373 124.284 169.845 120.887C170.035 119.519 169.971 118.127 170.142 116.758L170.203 116.301Z" fill="#F5F5F5"/>
<path d="M153.261 112.394C154.098 112.313 154.967 113.238 155.651 113.738C153.805 117.901 153.684 121.153 155.17 125.436C155.568 126.581 156.122 127.794 156.285 128.996C155.772 129.221 155.373 128.94 154.856 128.766C153.695 128.136 152.775 127.488 151.907 126.495C150.015 124.332 149.256 121.479 149.486 118.648C149.7 116.025 151.318 114.011 153.261 112.394Z" fill="#F5F5F5"/>
<path d="M101.475 211.76C101.656 211.755 101.907 211.843 102.087 211.885C102.274 212.162 102.741 212.684 102.826 212.98C103.528 215.436 100.699 223.318 99.9641 225.933C97.6232 234.251 95.9419 242.871 95.0413 251.469C94.5497 256.164 94.4579 260.811 94.2547 265.518C94.0763 269.662 93.7983 273.799 93.6817 277.946C93.1054 298.407 101.664 318.175 108.346 337.125C111.933 347.298 115.243 357.666 117.374 368.25C122.928 395.85 121.998 423.874 123.427 451.821C125.887 453.153 129.655 453.324 132.393 453.6C128.286 455.582 124.452 455.106 120.052 454.757C118.593 456.395 117.044 458.288 116.245 460.351C115.212 463.015 115.306 466.22 116.514 468.818C117.372 470.663 118.742 472.783 120.743 473.479C122.151 473.968 123.827 473.873 125.299 473.856C131.654 473.779 138.304 472.487 144.017 469.66C142.956 468.072 142.114 466.154 141.689 464.295C140.616 459.604 142.445 455.166 144.943 451.302C143.95 450.42 142.949 449.664 141.847 448.925L146.107 448.139C147.149 439.147 147.842 430.101 148.786 421.096C149.44 414.862 150.514 408.444 150.772 402.193C150.963 397.552 150.734 392.816 150.631 388.17C150.446 379.788 150.217 371.326 150.35 362.945C158.933 389.738 156.583 420.308 150.947 447.465C152.722 447.518 154.411 447.737 156.112 448.257L156.513 448.381C157.177 445.478 157.341 442.264 157.558 439.293C157.866 435.064 158.131 430.836 158.375 426.604C159.788 402.067 161.531 376.99 155.835 352.867C152.38 338.233 146.354 324.388 143.171 309.696C141.318 301.141 140.409 292.454 140.177 283.711C140.063 279.457 139.994 274.92 140.771 270.721C141.45 267.05 142.819 263.473 144.103 259.977C145.078 257.323 146.059 254.366 147.599 251.981L147.965 252.165C148.191 254.271 147.535 256.357 146.954 258.361C146.019 261.587 144.872 264.775 144.327 268.098C142.792 277.444 142.911 287.551 143.945 296.949C144.823 304.929 146.442 312.664 148.984 320.28C151.838 328.83 155.42 337.071 157.892 345.766C160.16 353.742 161.739 361.987 162.51 370.242C163.613 382.071 163.299 394.179 163.038 406.042C162.71 420.915 161.988 435.474 159.781 450.196L171.52 451.33C166.041 452.658 160.798 452.615 155.195 452.548C153.226 455.189 152.19 458.318 151.976 461.593C151.748 465.097 152.715 468.638 155.105 471.288C157.299 473.72 160.539 474.742 163.733 474.905C169.895 475.218 177.187 472.616 181.75 468.449C187.602 463.104 188.021 456.15 188.326 448.719C187.399 450.225 186.992 452.058 185.997 453.532C185.453 454.339 184.979 454.647 184.044 454.856C183.619 453.899 186.101 448.524 186.486 447.224C189.222 437.985 190.68 428.222 192.646 418.789C198.205 392.13 208.557 366.682 212.158 339.567C213.782 327.33 213.698 314.645 213.437 302.314C213.297 295.753 212.597 289.203 213.434 282.665C214.159 286.757 215.395 290.777 215.924 294.895C216.84 302.027 216.85 309.299 216.871 316.481C216.894 323.869 216.912 331.233 216.013 338.579C215.201 345.222 213.418 351.683 212.628 358.325C214.549 357.253 216.543 356.083 218.699 355.558C219.356 355.399 219.645 355.432 220.224 355.755L220.257 356.535C218.092 359.34 214.416 361.216 211.477 363.157C209.114 373.439 206.106 383.56 203.125 393.677C201.763 398.298 200.32 402.908 199.077 407.561C198.449 409.918 197.66 412.376 197.584 414.823C197.532 416.5 198.593 418.362 199.222 419.889C201.905 426.39 204.912 432.831 209.893 437.921C217.196 445.384 225.913 449.617 236.448 449.876C242.18 450.017 247.984 449.367 253.753 449.425L246.8 444.25C231.635 432.149 222.298 411.628 220.3 392.576C218.964 379.832 220.022 367.602 228.413 357.335C236.085 347.948 248.719 343.507 260.424 342.375C270.463 341.404 280.07 343.989 287.884 350.383L273.351 346.995C262.038 345.185 249.667 347.297 239.799 353.191C232.275 357.684 227.088 364.758 225.006 373.242C223.473 379.492 223.959 386.141 224.857 392.448C226.494 403.942 229.693 415.488 235.773 425.459C243.903 438.79 256.482 449.918 271.91 453.692C268.525 454.14 264.652 453.828 261.216 453.7C255.666 453.494 250.219 453.254 244.663 453.536C241.59 453.692 238.03 453.765 235.376 455.511C233.427 456.792 232.199 459.007 231.736 461.255C231.105 464.315 231.687 467.986 233.492 470.549C234.383 471.812 235.684 472.727 237.222 472.99C239.995 473.464 242.982 473.158 245.777 472.952C248.659 472.74 251.539 472.579 254.425 472.44C265.371 471.913 276.352 471.797 287.219 470.252C294.017 469.286 300.916 468.135 306.625 464.041C317.887 455.966 321.915 439.479 323.899 426.52C325.975 412.953 325.601 399.035 322.876 385.588C319.791 370.368 313.839 355.671 305.288 342.688C297.989 331.606 288.916 321.763 279.43 312.535C274.772 308.003 270.119 303.441 265.194 299.199C254.57 290.048 243.12 281.837 232.133 273.13C226.649 268.785 221.329 264.281 215.921 259.846C210.583 255.468 204.165 251.303 200.09 245.684C196.478 240.703 194.638 234.759 193.135 228.856C192.605 226.775 191.813 223.907 192.252 221.757C192.379 221.136 192.466 221.045 192.957 220.707C196.422 222.054 198.912 239.211 202.392 242.952C204.609 245.336 207.432 247.366 209.955 249.43C213.726 252.514 217.472 255.623 221.266 258.68C236.147 270.667 251.318 282.255 265.865 294.653C271.916 299.811 277.617 305.427 283.271 311.014C288.669 316.35 294.055 321.769 298.904 327.615C315.748 347.923 326.73 371.4 328.821 397.929C329.979 412.605 328.791 426.669 324.696 440.829C322.406 448.749 319.275 456.545 313.827 462.854C310.802 466.358 307.216 468.9 302.893 470.543C298.499 472.214 293.711 473.009 289.069 473.662C280.209 474.91 271.172 475.295 262.244 475.786C254.626 476.205 246.969 476.766 239.335 476.573C237.954 476.537 236.641 476.379 235.336 475.882C234.533 475.576 233.336 474.607 232.53 474.571C230.603 474.487 228.169 475.082 226.19 475.221C222.654 475.468 205.311 476.969 203.365 475.074C202.77 474.496 203.097 473.724 203.124 472.955C202.361 472.533 201.482 472.109 200.822 471.536C199.037 469.989 198.033 466.802 197.892 464.514C197.711 461.563 198.665 458.384 200.663 456.189C205.216 451.186 212.57 450.809 218.871 450.541C216.272 448.754 213.568 447.082 211.125 445.082C203.853 439.13 198.673 430.962 195.128 422.357C194.41 427.271 193.723 432.109 193.413 437.07C192.696 448.526 193.702 461.197 185.691 470.507C181.005 475.954 174.44 479.213 167.259 479.7C158.4 480.301 151.775 477.871 145.154 472.088L142.36 474.199C135.262 479.266 122.539 479.386 114.221 477.959C108.949 477.055 103.144 475.052 100.012 470.413C97.8029 467.14 96.8535 462.757 97.6102 458.867C98.1597 456.043 99.2908 453.585 101.777 451.946C102.915 451.195 104.387 450.512 105.782 450.58C106.504 450.614 107.26 450.986 107.98 450.948C108.972 450.895 109.951 450.443 110.971 450.34C113.439 450.089 116.084 450.508 118.507 450.966L118.654 450.754C119.525 443.399 118.816 435.543 118.567 428.138C117.839 406.477 116.56 384.526 112.195 363.249C111.035 357.591 109.459 351.96 107.854 346.411C102.691 328.561 95.3962 311.315 92.0753 292.961C90.3979 283.692 91.0048 275.009 91.5856 265.714C91.9893 259.245 92.3182 252.843 93.1744 246.408C94.1238 239.272 95.6482 232.203 97.2357 225.187C97.8205 222.604 98.4332 220.044 99.1651 217.497C99.7388 215.499 100.275 213.484 101.475 211.76Z" fill="#AD1CAD"/>
<path d="M104.324 454.436L104.655 454.409C105.148 454.795 105.013 454.636 104.829 455.168C103.647 458.593 103.191 461.625 104.05 465.178C104.602 467.456 105.586 469.523 106.555 471.647L106.271 471.873L105.078 471.015C103.971 470.005 102.83 468.811 102.173 467.451C100.583 464.164 100.059 460.612 101.412 457.121C101.955 455.722 103.004 455.026 104.324 454.436Z" fill="#F5F5F5"/>
<path d="M151.839 451.203L152.422 451.176L152.658 451.506L151.657 452.85C148.777 456.929 147.424 463.496 149.221 468.229C149.729 469.565 151.175 471.114 151.4 472.375C150.836 472.409 150.31 471.873 149.844 471.556C147.591 469.139 145.703 466.696 145.081 463.362C144.502 460.257 145.038 456.479 146.842 453.86C148.211 451.874 149.624 451.609 151.839 451.203Z" fill="#F5F5F5"/>
<path d="M111.181 453.031L116.116 453.397C114.58 455.31 113.105 457.552 112.25 459.86C110.414 464.816 113.255 469.317 115.289 473.655C113.902 473.162 112.651 472.716 111.481 471.786C108.762 469.626 107.456 466.08 107.117 462.723C106.722 458.81 108.843 455.889 111.181 453.031Z" fill="#F5F5F5"/>
<path d="M218.924 453.925C221.6 453.531 224.702 453.824 227.405 453.967L226.505 455.419C223.476 460.827 223.896 465.616 225.546 471.405L212.296 472.114C210.098 472.247 206.938 472.606 205.044 471.299C203.133 469.981 202.313 467.798 201.965 465.59C201.588 463.192 201.76 460.794 203.329 458.83C206.782 454.509 213.877 454.339 218.924 453.925Z" fill="#F5F5F5"/>
<path d="M416.617 305.491L427.429 305.486C442.64 306.389 456.436 314.919 466.331 326.189C470.495 330.931 473.588 336.293 476.287 341.962C484.284 358.753 486.748 377.788 485.42 396.216C483.783 418.924 475.482 440.744 457.889 455.837C443.43 468.243 423.299 470.96 404.947 469.441C387.316 467.982 370.108 461.582 355.745 451.281C352.771 449.147 350.049 446.7 347.277 444.315C343.129 440.746 339.189 437.315 335.639 433.13C337.766 434.197 339.642 435.659 341.645 436.923C344.982 439.028 348.383 440.957 351.568 443.298C355.5 446.188 359.162 449.25 363.506 451.535C362.218 449.483 360.232 447.593 358.617 445.782C355.643 442.449 352.707 439.08 349.584 435.884L357.806 438.38C354.554 431.371 349.626 424.896 347.796 417.278C352.033 418.365 355.921 420.205 359.921 421.925C363.088 423.287 366.37 424.468 369.601 425.673C384.953 431.399 403.91 433.197 419.132 426.139C429.875 421.158 437.989 411.502 441.989 400.449C446.223 388.748 445.578 374.918 440.307 363.676C438.085 359.19 435.313 355.129 431.551 351.785C427.85 348.496 423.276 345.246 418.299 344.371C414.771 343.751 411.133 344.065 407.584 344.269C410.244 342.631 412.803 341.212 415.976 340.923C421.466 340.425 427.087 343.246 431.172 346.705C440.814 354.869 446.524 366.912 447.315 379.464C447.62 384.304 447.172 389.171 447.545 394.011C448.16 392.71 448.393 391.16 448.742 389.766C449.586 386.395 450.203 382.84 451.357 379.57C452.05 377.606 452.86 375.58 454.847 374.635L455.415 374.846C458.288 378.613 458.814 384.461 459.62 389.015L460.763 382.521C461.599 378.175 463.408 369.612 467.3 366.98C467.571 367.034 467.632 367.029 467.911 367.181C471.262 368.996 472.489 375.272 473.418 378.631C473.881 373.285 473.64 368.313 473.179 362.978L477.803 360.194C474.624 349.57 471.69 339.162 464.534 330.37C455.771 319.605 443.144 312.237 429.247 310.869C415.439 309.511 402.797 313.909 392.231 322.804C388.895 325.612 385.995 328.889 382.622 331.658C382.634 331.111 383.157 330.25 383.384 329.739C385.789 324.348 390.067 320.859 393.956 316.61C387.592 319.145 382.016 323.695 378.589 329.672C374.911 336.085 373.237 344.386 375.233 351.629C376.451 356.054 378.781 360.305 382.931 362.572C387.887 365.279 393.769 363.559 397.951 360.219C399.809 358.735 402.06 356.025 404.381 355.393C405.04 355.213 405.23 355.076 405.826 355.436C405.398 357.179 404.675 358.648 403.575 360.054C400.336 364.194 395.538 367.287 390.252 367.842C385.835 368.306 382.023 367.116 378.628 364.259C373.844 360.233 371.069 353.887 370.572 347.722C369.809 338.259 373.682 328.309 379.778 321.185C389.006 310.403 402.94 306.569 416.617 305.491Z" fill="#AD1CAD"/>
<path d="M50.244 21.0423C54.0961 20.8091 57.8661 21.5582 61.4927 22.8283C67.1368 24.8049 72.5 28.0216 77.6397 31.0508C83.4663 34.4842 89.2623 37.9746 94.6715 42.045C95.8612 42.94 96.9825 43.8808 98.0758 44.8914C98.2425 45.0454 99.4615 46.2941 99.5852 46.3079C99.9355 46.3472 101.755 45.492 102.176 45.3536C106.306 43.9959 110.523 42.4799 114.736 41.4521C126.894 38.4868 138.994 36.5631 151.538 37.2041C162.994 37.7894 174.541 39.9084 185.347 43.7788C189.295 45.1929 193.297 46.8192 197.018 48.7607C198.273 49.4154 199.491 50.1355 200.709 50.856C200.809 50.9149 201.619 51.4514 201.708 51.4496C202.243 51.4385 203.665 50.6168 204.223 50.3825C206.942 49.2424 209.649 48.0939 212.441 47.142C220.241 44.482 228.219 42.3841 236.178 40.2634C243.664 38.2685 251.053 36.2049 258.735 35.0692C262.064 34.5771 265.556 34.0299 268.899 34.6783C271.774 35.2361 274.415 36.9507 276.009 39.422C278.079 42.6292 278.642 46.7861 279.007 50.5046C279.844 59.0331 279.338 67.0951 277.453 75.4597C275.978 82.0053 273.888 88.7501 271.093 94.862C268.001 101.623 263.452 108.005 259.022 113.953C256.98 116.695 254.978 119.542 252.499 121.916C250.218 124.102 247.583 125.879 244.924 127.566C245.454 126.409 245.891 125.193 246.536 124.094C248.921 120.032 252.181 116.531 255.021 112.794C257.415 109.644 259.64 106.277 261.673 102.887C265.625 96.3015 268.996 89.5346 271.245 82.1739C273.262 75.5723 274.231 68.6765 274.796 61.8126C275.225 56.6051 275.514 51.5858 274.197 46.4763C273.448 43.5752 272.069 40.7942 269.358 39.267C267.739 38.3551 265.854 38.0447 264.015 38.0854C260.745 38.1579 257.46 38.9266 254.278 39.6105C248.476 40.8569 242.807 42.379 237.102 44.0126C225.935 47.2102 214.813 50.5737 203.65 53.7674L207.745 59.0137C206.172 58.4312 204.587 57.3494 203.116 56.5301C199.997 54.7922 196.87 53.0323 193.656 51.4741C179.902 44.8064 164.199 40.8824 148.914 40.2761C138.243 39.8528 127.6 41.5034 117.318 44.2732C112.004 45.7049 106.729 47.3793 101.875 50.0207C96.7311 52.8204 92.1352 56.6867 87.8584 60.6539C84.4267 63.8363 81.1403 67.2123 78.4399 71.0495C69.2507 84.1062 65.9944 100.466 64.5212 116.08C64.0247 121.343 63.8386 126.641 63.313 131.902C62.564 139.399 60.6261 146.923 60.3452 154.418C70.7165 151.889 81.264 150.278 91.8012 148.633C94.2886 148.244 97.172 147.361 99.6776 147.527C100.651 147.591 100.85 147.848 101.448 148.527C101.71 149.697 100.501 151.64 99.9869 152.768C100.189 155.697 101.563 159.111 103.707 161.143C105.258 162.612 107.2 163.208 109.316 163.092C113.435 162.867 116.581 159.035 119.145 156.224C119.259 155.163 118.755 153.882 118.585 152.815C118.306 151.055 118.213 149.229 118.053 147.453C115.98 146.69 114.277 146.38 112.423 144.991C110.954 143.891 109.551 142.27 109.345 140.394C109.194 139.015 109.61 137.814 110.504 136.757C112.728 134.124 115.989 133.415 119.269 133.145C123.587 132.788 128.394 133.824 131.744 136.689C132.938 137.711 134.345 139.171 134.389 140.833C134.419 141.983 133.797 142.98 133.039 143.796C130.128 146.928 125.615 147.483 121.588 147.715C121.514 149.52 121.444 151.576 121.76 153.356C122.442 157.202 124.404 161.514 127.763 163.716C130.218 165.326 132.894 165.4 135.682 164.844C140.02 163.98 144.094 160.731 146.274 156.943C146.523 156.512 147.11 155.63 147.198 155.165C147.249 154.897 147.074 154.184 147.04 153.9C146.869 152.464 146.587 150.792 147.416 149.506C148.075 149.1 148.742 149.121 149.492 149.175C153.95 149.493 158.611 150.48 163.047 151.13C171.013 152.297 178.931 153.324 186.947 154.094C197.271 155.085 207.637 155.755 217.991 156.349C224.929 156.747 231.954 157.011 238.865 157.723C241.44 134.934 238.194 109.421 228.297 88.6146C226.983 85.8529 225.533 83.1062 223.806 80.5782C222.238 78.2859 219.892 76.0313 218.857 73.4538C219.471 72.879 219.782 74.1042 220.567 73.2097C221.783 71.8236 222.685 70.3692 224.05 69.0534C230.527 62.8094 238.856 57.8102 247.147 54.4174C249.344 53.5188 251.662 52.4893 254.005 52.0555C256.063 51.6743 258.706 51.4853 260.48 52.7847C261.599 53.6049 262.058 54.8676 262.299 56.1849L262.373 56.6081C264.192 65.7409 261.996 76.6231 258.522 85.0827C255.545 92.3327 251.282 99.6394 244.504 103.908C242.798 104.983 241.036 105.637 239.193 106.411C240.67 113.264 242.681 119.873 243.719 126.841C244.446 131.721 244.278 136.653 244.153 141.57C243.963 149.099 243.585 156.546 242.231 163.969L238.989 176.199C244.937 177.639 250.889 179.546 256.721 181.403C261.189 182.826 266.05 184.085 270.06 186.56C271.836 187.656 273.091 189.022 274.407 190.611L237.849 178.807C236.578 181.778 235.316 184.762 233.631 187.529C229.407 194.466 223.038 200.848 216.189 205.178C210.91 208.516 205.038 210.843 199.112 212.749C194.011 214.391 188.369 216.108 183.006 214.885C186.877 212.163 191.367 211.38 195.812 210.046C203.783 207.652 211.977 204.063 218.464 198.746C221.875 195.95 224.804 192.58 227.523 189.127C222.843 185.898 218.086 183.251 212.768 181.191C208.653 179.599 204.386 178.339 200.148 177.124C196.534 176.087 192.913 175.079 189.294 174.061C186.555 173.291 182.065 172.544 180.059 170.499C180.325 169.934 180.431 169.935 180.992 169.634C184.23 169.473 187.624 170.801 190.744 171.585C200.167 173.955 209.91 176.145 218.736 180.29C222.707 182.155 226.033 184.502 229.395 187.281C231.413 184.386 232.886 181.053 234.373 177.863C229.271 174.57 223.491 173.07 217.725 171.393C205.689 167.893 193.487 165.331 181.134 163.248C170.802 161.507 160.01 160.404 150.035 157.169C147.458 160.59 144.94 163.813 141.26 166.119C137.833 168.268 133.926 169.124 129.957 168.153C125.175 166.983 122.322 163.757 119.834 159.731C118.591 162.285 117.001 164.622 114.206 165.608C110.749 166.826 107.006 166.624 103.712 164.975C100.831 163.533 98.7263 160.839 97.7919 157.792L97.6779 157.414L62.2161 169.21C63.0677 171.444 63.9024 173.674 65.0565 175.774C70.641 185.938 80.7998 195.51 91.0628 200.74C94.5888 202.538 98.4118 203.802 102.198 204.924C104.5 205.606 106.84 206.144 109.172 206.708C110.37 206.998 111.839 207.192 112.769 208.055L112.44 208.538C109.246 210.072 104.038 209.771 100.7 208.869C96.2577 207.669 92.0232 205.421 88.0049 203.218C79.179 198.38 70.499 191.902 64.3034 183.867C61.393 180.094 59.0398 175.97 56.6631 171.852C50.9275 175.373 45.2876 179.19 39.6782 182.912C36.975 184.705 34.2853 186.516 31.5499 188.26C29.5842 189.514 27.4525 190.906 25.2008 191.541L24.7891 191.306C24.7146 190.929 24.6772 190.622 24.797 190.247C25.1765 189.057 26.0753 187.96 26.9663 187.113C29.5779 184.629 32.9153 182.741 35.9169 180.753C42.4294 176.442 48.853 172.225 55.7371 168.512C54.8565 165.338 54.8815 161.836 54.9329 158.572C47.2251 160.969 39.3103 162.882 31.5168 164.979C26.2173 166.406 20.3978 168.643 14.945 168.971C14.3522 168.527 14.3775 168.542 14.2277 167.815C14.3729 167.552 14.5077 167.305 14.7112 167.081C16.2789 165.365 19.0911 164.121 21.2436 163.296C25.0842 161.824 29.2021 161.04 33.1808 160.023C40.6627 158.11 48.1453 156.002 55.8397 155.142L60.7069 110.907C59.4652 109.618 58.3991 107.786 57.4004 106.288C52.8155 99.4122 49.1974 91.9265 46.501 84.1159C41.0701 68.3842 38.7918 50.3242 40.7237 33.7384C41.0556 30.889 41.3553 27.1731 42.7263 24.611C43.0633 23.981 43.4258 23.4548 44.1253 23.2203C44.9122 23.6024 45.3775 24.2899 45.4871 25.1695C45.9292 28.7169 44.6304 32.9177 44.2248 36.4665C43.7041 41.0227 43.6155 45.5394 43.8809 50.1137C44.6109 62.6939 46.8889 76.1622 51.8871 87.7742C54.7834 94.5027 58.4697 100.863 61.869 107.342L66.3158 86.0769C65.2529 85.1882 64.1395 84.2253 63.24 83.1726C56.438 75.211 55.1791 63.5582 54.4686 53.5487C54.2685 50.7289 53.8861 47.6765 54.1592 44.8607C54.3425 42.9702 54.7173 40.6114 56.3322 39.3962C57.1821 38.7565 58.2852 38.7086 59.2931 38.9135C61.4507 39.3521 63.4715 40.6884 65.276 41.8907C72.3945 46.6336 77.8064 53.0394 82.5898 60.0475C86.7416 56.0036 91.1005 52.4859 95.8475 49.1645C95.2315 48.0385 93.3601 46.7311 92.3234 45.85C82.8262 37.7765 71.6086 31.3266 60.0765 26.6048C58.7715 26.0704 57.4585 25.5342 56.1201 25.0883C54.3789 24.5082 49.5437 23.6308 48.5844 22.1843C48.9756 21.5318 49.5817 21.3414 50.244 21.0423Z" fill="#AD1CAD"/>
<path d="M118.707 136.764L119.395 136.719C123.633 136.471 127.05 137.553 130.213 140.375C128.265 142.141 126.525 142.894 124.047 143.617C121.826 143.983 119.35 144.33 117.137 143.76C114.828 143.165 113.676 141.328 112.599 139.398C114.408 137.66 116.321 137.167 118.707 136.764Z" fill="#F5F5F5"/>
<path d="M94.6663 151.415C95.326 151.325 95.647 151.217 96.278 151.456L96.5293 154.076L62.6129 165.766C62.18 165.899 62.1253 165.878 61.7067 165.775C60.9131 163.225 61.0072 159.899 60.776 157.237L94.6663 151.415Z" fill="#F5F5F5"/>
<path d="M58.7625 42.1022C64.2805 45.4273 70.0862 49.9894 73.971 55.1333C76.1062 57.9606 77.7686 61.1445 79.5092 64.2246C76.0756 67.8125 73.4162 71.4414 71.0349 75.7917L67.4875 83.6706C65.5689 80.599 63.7599 77.4773 62.4169 74.1029C59.8972 67.7735 58.9306 60.9827 58.4205 54.2278C58.1092 50.1064 57.8941 46.1741 58.7625 42.1022Z" fill="#F5F5F5"/>
<path d="M151.112 152.678C152.659 152.32 155.105 153.158 156.707 153.4C161.957 154.195 167.201 155.025 172.461 155.755C176.423 156.303 180.418 156.723 184.399 157.113C192.231 157.88 200.129 158.503 207.993 158.805C218.19 159.197 228.637 159.215 238.767 160.413L236.029 172.756L235.51 174.967C230.24 171.322 223.468 169.555 217.352 167.858C202.589 163.761 187.512 161.218 172.395 158.823C168.287 158.173 164.197 157.456 160.109 156.692C157.149 156.139 154.035 155.673 151.28 154.424C150.955 153.691 151.028 153.456 151.112 152.678Z" fill="#F5F5F5"/>
<path d="M256.356 55.908C257.146 55.8475 257.498 55.71 258.195 56.114C259.562 59.2618 259.1 63.2685 258.751 66.6036C257.672 76.9324 255.053 86.5593 248.096 94.5626C245.298 97.782 241.902 100.583 238.598 103.269L235.553 94.9818C233.798 90.7449 232.122 86.4421 229.891 82.4252C228.276 79.5163 226.31 76.7969 224.415 74.0671C226.722 72.2735 228.787 70.1635 231.087 68.3523C238.488 62.5244 247.229 58.2418 256.356 55.908Z" fill="#F5F5F5"/>
</svg>
