<svg width="500" height="500" viewBox="0 0 500 500" fill="none" xmlns="http://www.w3.org/2000/svg">
<path d="M158.652 77.9015C156.079 77.7641 153.543 78.0356 151.048 78.6729C149.213 79.1417 146.344 80.3709 145.392 82.087C145.089 82.6339 145.172 82.6482 145.351 83.2517C145.737 83.6645 146.078 84.0603 146.625 84.255C148.236 84.8312 151.348 83.0538 152.868 82.3976C155.587 81.5108 157.989 81.0479 160.804 81.7602C162.247 82.1248 164.497 83.2608 165.977 82.9353C166.795 82.7556 166.83 82.5681 167.263 81.9073C167.279 81.1319 167.405 80.7211 166.832 80.0903C165.387 78.4998 160.685 78.1248 158.652 77.9015Z" fill="#AD1CAD"/>
<path d="M211.408 79.1378C207.91 78.8273 204.987 79.5447 202.069 81.4998L202.58 82.3976C202.725 82.6365 203.568 83.9236 203.786 83.9933C204.079 84.0877 206.588 83.2088 207.086 83.0975C209.043 82.6587 211.877 82.77 213.812 83.2869C215.347 83.6971 216.75 84.0499 218.185 84.7596L218.518 84.9262C220.517 86.0962 222.364 87.9503 224.68 88.4139C225.36 87.9549 225.516 87.8618 225.897 87.0994C225.89 86.3325 225.776 85.8865 225.32 85.257C222.067 80.768 216.548 79.798 211.408 79.1378Z" fill="#AD1CAD"/>
<path d="M421.488 406.466C420.579 406.25 419.474 406.299 418.541 406.396C415.337 406.725 412.185 407.896 408.991 408.413C401.488 409.625 372.605 412.342 368.588 417.872C368.147 418.479 368.096 418.831 368.224 419.545L368.928 419.898C372.332 419.624 375.417 418.609 378.698 417.732C382.202 416.797 385.739 416.012 389.303 415.342C397.534 413.797 405.93 413.409 414.111 411.542C416.358 411.029 419.473 410.361 421.27 408.855C421.997 408.245 422.302 407.885 422.386 406.962L421.488 406.466Z" fill="#AD1CAD"/>
<path d="M312.226 458.484C307.924 458.169 303.816 459.011 299.555 459.39C292.541 460.014 285.464 460.506 278.429 460.835C270.751 461.194 262.944 461.046 255.254 460.913C251.743 460.853 248.275 460.648 244.76 460.781C245.931 461.539 247.028 462.161 248.324 462.684C253.383 464.19 258.41 464.802 263.683 464.989C267.871 465.137 272.101 464.884 276.291 464.775C287.012 464.498 297.962 464.313 308.401 461.629C309.658 461.306 312.076 460.766 312.951 459.809C313.201 459.534 313.114 459.317 313.114 458.974L312.226 458.484Z" fill="#AD1CAD"/>
<path d="M422.061 411.746C419.544 414.305 417.08 416.971 414.822 419.762C409.988 425.74 405.137 432.423 398.703 436.793C393.524 440.311 387.514 442.032 381.349 442.757C375.849 443.404 370.12 442.731 364.566 443.089C363.269 443.172 360.758 443.234 359.75 444.075C359.953 444.795 360.592 444.949 361.218 445.318C371.755 448.693 384.98 448.409 395.099 443.835C402.24 440.607 407.492 434.721 412.343 428.764C414.393 426.246 416.526 423.694 418.147 420.874C419.814 417.976 420.898 414.863 422.061 411.746Z" fill="#AD1CAD"/>
<path d="M209.147 103.687L206.536 103.605C203.41 103.738 200.533 105.034 198.446 107.364C196.161 109.915 196.432 112.459 196.578 115.614C196.682 117.855 197.598 120.29 198.944 122.099C201.36 125.346 205.398 126.739 209.261 127.223C211.059 127.221 212.623 127.127 214.255 126.275C219.406 123.583 221.153 116.452 222.621 111.337C219 107.401 214.413 104.658 209.147 103.687Z" fill="#AD1CAD"/>
<path d="M184.339 284.472C183.778 284.321 184.048 284.31 183.531 284.472C184.138 287.049 185.397 289.57 186.508 291.963C188.493 296.236 190.661 300.409 192.351 304.813C194.548 310.535 196.266 316.419 198.394 322.161C201.968 331.803 205.761 341.405 208.468 351.336C212.992 367.936 213.585 385.633 211.106 402.607C210.101 409.488 208.449 416.751 205.905 423.232C204.492 426.829 201.975 430.266 201.355 434.113C201.586 434.935 201.744 435.023 202.355 435.579L203.127 435.072L205.228 432.053C209.053 426.369 210.971 419.686 212.509 413.085C216.7 395.096 217.618 375.82 213.997 357.618C211.5 345.069 207.25 333.304 202.963 321.299C199.855 312.596 196.639 303.866 192.424 295.63C190.383 291.643 188.178 287.016 184.339 284.472Z" fill="#AD1CAD"/>
<path d="M201.957 347.948L201.516 347.842C200.249 348.2 199.328 350.109 198.875 351.255C195.705 359.287 193.947 367.964 191.655 376.283C188.104 389.17 183.74 401.804 179.01 414.301C176.361 421.299 173.787 428.665 169.849 435.065C167.115 439.509 163.751 443.538 159.38 446.441C154.743 449.522 149.288 450.337 143.831 450.419C142.289 450.443 140.609 450.548 139.099 450.209C138.207 450.008 137.235 449.766 136.823 448.866C136.482 448.122 136.704 447.333 136.867 446.569C137.566 443.301 139.16 440.271 140.03 437.043C138.585 439.482 136.848 441.788 135.594 444.332C134.626 446.294 134.045 448.458 133.487 450.564L131.624 447.44C130.025 444.352 133.247 440.038 134.258 437.024C134.678 435.771 135.181 434.471 134.551 433.21C133.882 433.081 133.459 433.065 132.827 433.361C130.159 434.613 128.975 441.353 128.136 444.011C127.157 441.991 126.889 437.519 127.468 435.353C128.166 432.747 130.503 431.173 132.699 429.898C134.952 428.756 137.291 427.741 139.608 426.737C141.58 425.881 143.496 425.291 144.995 423.688C144.818 423.002 144.463 422.727 143.823 422.385C141.625 421.211 136.616 422.122 134.385 422.93C129.903 424.555 125.67 427.616 123.678 432.052C122.043 435.693 121.764 440.275 123.167 444.031C123.809 445.751 125.416 447.43 125.689 449.152C125.752 449.55 126.138 449.863 126.454 450.106C127.482 450.898 128.869 451.504 130.03 452.081C135.937 455.019 142.594 456.136 149.125 455.008C158.167 453.448 165.816 447.594 171.011 440.206C174.866 434.725 177.857 428.607 180.397 422.419C183.743 414.269 186.47 405.742 189.096 397.336C192.904 385.146 196.384 372.964 199.495 360.576C200.06 358.329 200.637 356.086 201.212 353.842C201.702 351.928 202.297 349.93 201.957 347.948Z" fill="#AD1CAD"/>
<path d="M166.038 131.232C163.854 131.248 161.467 131.373 159.358 131.949C156.135 132.829 152.143 134.474 150.247 137.434C149.16 139.131 148.722 140.944 148.823 142.946C149.184 150.094 155.901 152.198 160.283 156.549C161.3 157.558 162.251 158.726 162.502 160.183C162.804 161.931 162.001 164.01 160.967 165.402C158.945 168.124 155.684 170.324 152.296 170.816C148.256 171.403 145.072 170.253 141.951 167.72C140.847 166.823 139.891 165.824 138.743 164.958C138.157 165.344 138.15 165.915 137.95 166.569C138.193 167.57 138.654 168.28 139.311 169.068C141.79 172.036 145.038 173.884 148.93 174.171C154.965 174.616 159.433 171.919 163.877 168.176C165.775 171.285 167.83 173.453 170.767 175.585C171.97 176.458 173.121 177.09 174.461 177.724C179.301 179.749 185.545 179.932 190.447 177.921C194.314 176.335 198.193 172.715 199.811 168.835L192.719 173.543C188.162 175.948 182.199 177.443 177.145 175.77C170.744 173.652 167.873 168.137 164.955 162.54C169.507 157.695 176.182 155.722 181.405 151.769C183.516 150.171 185.708 147.837 185.991 145.084C186.263 142.443 185.44 140.033 183.82 137.946C180.961 134.263 176.077 132.164 171.541 131.59L171.099 131.538L166.038 131.232Z" fill="#AD1CAD"/>
<path d="M198.164 24.1374C193.416 23.8583 188.726 24.0204 183.998 24.4786C176.502 25.2049 168.236 26.2888 162.161 31.1007C167.816 30.1831 173.484 28.9308 179.157 28.2098C187.401 27.1619 196.369 26.863 204.651 27.8042C210.242 28.4395 215.603 30.0519 221.188 30.7004C225.762 31.2316 230.392 30.2977 234.986 31.0846C240.109 31.9626 244.325 33.7573 248.59 36.7069C254.435 40.7498 259.225 46.3833 263.322 52.1335C273.115 65.8774 279.122 80.7192 282.082 97.2875C283.279 103.985 284.452 110.831 280.37 116.775C280.219 116.996 280.081 117.219 279.893 117.411C277.809 119.531 273.75 120.657 270.815 120.661C250.837 120.687 242.313 81.7771 239.819 66.8481L238.247 52.2151C237.997 50.963 237.825 49.9366 236.711 49.1891L236.097 49.41C235.869 49.9684 235.696 50.4936 235.642 51.0984C235.057 57.6632 235.866 64.4568 236.962 70.908C238.398 79.3598 240.485 87.5369 243.254 95.6541C246.399 104.871 249.818 114.138 256.06 121.775C261.129 127.978 268.073 132.338 276.142 133.019C278.768 133.241 281.477 132.469 283.464 130.715C286.148 128.345 286.906 124.512 287.115 121.091C288.851 92.5421 278.796 62.5759 259.787 41.1682C254.459 35.1681 247.734 29.8492 239.733 28.0906C236.723 27.429 233.531 27.3812 230.463 27.4877C228.96 27.5398 227.479 27.7486 226.012 28.0784C225.287 28.2413 223.982 28.7628 223.267 28.6588C221.086 28.3419 218.681 26.9869 216.452 26.4704C210.512 25.0945 204.245 24.4867 198.164 24.1374Z" fill="#AD1CAD"/>
<path d="M272.767 302.821C271.076 303.859 269.129 317.388 268.867 319.997C268.435 324.307 267.598 328.72 266.955 333.016C265.313 343.967 263.503 354.957 260.672 365.676C259.076 371.717 257.412 377.788 255.353 383.687C250.094 398.753 243.94 413.426 238.148 428.284C233.875 439.245 230.095 450.454 225.46 461.264C224.824 462.747 224.084 464.534 222.945 465.693C221.334 467.335 219.45 467.633 217.344 468.195C209.494 470.288 200.824 470.07 192.743 470.085C193.253 468.187 193.884 466.356 194.705 464.568C195.588 462.645 197.059 460.228 197.259 458.126C197.322 457.464 197.162 456.842 196.702 456.355C196.308 455.938 196.249 456.047 195.715 456.015C192.193 459.317 191.194 465.446 190.061 469.951L186.296 468.368C187.319 465.348 190.618 456.745 189.701 454.074L189.087 453.825C188.461 453.895 187.858 453.964 187.333 454.339C183.634 456.98 183.975 464.459 183.209 468.47C181.996 467.538 180.928 466.648 179.923 465.49C179.598 463.739 179.693 461.574 180.131 459.844L180.249 459.404C181.019 456.456 183.279 454.06 183.914 451.222C184.076 450.501 184.166 449.921 183.733 449.327C183.283 449.381 182.984 449.526 182.615 449.777C178.582 452.533 177.658 458.14 176.832 462.572C176.17 461.834 175.677 461.26 175.472 460.272L175.402 459.9C175.013 458.048 175.085 456.357 175.647 454.538L175.756 454.197C176.26 452.581 177.003 451.213 178.062 449.893L178.353 449.537C181.536 445.593 186.689 443.162 191.464 441.786C193.375 441.235 196.59 440.613 198.074 439.301C198.515 438.912 198.461 438.747 198.471 438.204C198.242 438.002 198.052 437.834 197.765 437.717C196.911 437.37 195.662 437.475 194.757 437.504C190.104 437.654 185.056 439.063 180.882 441.122C175.974 443.544 173.163 447.952 171.456 452.993L170.974 457.139C170.763 458.959 170.95 460.607 171.33 462.393C171.575 463.54 172.365 465.338 172.133 466.469L172.042 466.843C172.566 467.664 173.214 468.238 173.983 468.824C175.749 470.171 177.804 471.072 179.821 471.973C183.109 473.441 186.567 474.71 190.131 475.307C193.99 475.952 198.033 475.814 201.935 475.802C205.517 475.792 209.161 475.784 212.713 475.262C216.261 474.741 220.198 473.738 223.067 471.484C227.433 468.054 229.574 461.044 231.627 456.057C233.793 450.793 235.937 445.314 239.398 440.743C245.478 432.712 255.194 431.303 264.592 430.745C270.288 430.408 275.959 430.268 281.666 430.261C286.121 430.256 290.777 430.51 295.199 429.883L293.108 429.116C285.584 426.629 278.201 426.943 270.406 426.792C263.717 426.664 256.203 426.201 249.733 428.146C247.17 428.916 244.779 430.012 242.553 431.508C241.766 432.038 241.049 432.828 240.211 433.242L248.51 412.235C250.039 413.26 251.31 414.903 252.684 416.136C256.357 419.432 260.781 421.988 265.311 423.898C260.601 420.077 256.489 416.277 252.374 411.812C251.689 411.069 250.591 410.208 250.1 409.358C250.074 409.314 257.124 391.208 259.962 382.301C262.388 374.689 264.41 366.831 266.094 359.022C267.916 350.58 275.852 308.784 272.767 302.821Z" fill="#AD1CAD"/>
<path d="M144.885 24.1146L140.38 24.1432C137.068 24.3985 133.773 25.2766 130.754 26.6609C125.62 29.015 121.304 32.4836 116.956 36.0204C108.724 42.7145 100.953 50.2957 94.0589 58.3617C91.3259 61.5596 88.9681 64.9652 86.6565 68.4737C82.3093 75.0714 77.4262 83.1085 78.3704 91.3663C78.6491 93.8057 80.3968 96.2432 82.3562 97.6026C85.0689 99.4854 88.7134 99.6274 91.8957 99.3481C103.173 98.3578 112.656 92.503 120.65 84.7556C121.886 83.5577 123.142 82.3487 124.285 81.0603C126.002 79.1234 127.613 77.0837 129.286 75.1078C129.778 74.5258 130.4 73.598 131.18 73.462C131.219 74.6638 130.6 75.6358 130.147 76.7139C129.015 79.4105 127.647 82.0167 126.616 84.7504C123.809 92.1879 121.666 99.9405 119.963 107.702C117.322 119.737 115.37 132.293 118.937 144.377C120.331 149.099 122.808 153.556 124.915 157.984C126.611 161.55 128.081 165.216 129.997 168.677C134.296 176.44 141.422 183.169 149.227 187.377L149.475 187.508C147.862 191.065 146.063 195.131 145.839 199.082C145.393 206.984 148.775 212.375 153.883 218.107C153.592 219.362 152.919 220.542 152.501 221.767C151.781 223.884 151.315 226.17 150.859 228.359C150.192 231.56 149.967 234.739 149.497 237.966C147.356 252.65 145.777 267.747 146.08 282.612C146.428 299.643 149.552 316.332 151.465 333.196C152.631 343.465 152.787 353.891 152.916 364.213C153.097 378.627 153.386 393.55 149.791 407.625C148.476 412.775 146.077 417.453 143.855 422.242L146.585 422.644C150.493 416.412 153.256 409.654 154.792 402.456C157.08 391.736 156.787 380.523 156.558 369.626C156.279 356.3 155.803 343.109 154.331 329.853C152.79 315.971 150.261 302.008 149.698 288.045C149.09 272.96 150.091 258.14 152.085 243.187C152.757 238.152 153.269 233.105 154.317 228.125C154.866 225.515 155.751 223.002 156.405 220.421C157.523 221.161 158.605 221.929 159.671 222.743C159.927 222.94 160.603 223.336 160.771 223.59C161.86 225.23 162.283 227.362 163.484 229.053C165.413 231.769 168.482 233.992 171.815 234.488C174.98 234.96 178.133 233.994 180.671 232.105C183.889 229.712 185.304 226.718 185.866 222.801C186.581 222.355 187.696 222.187 188.519 221.961C190.599 221.387 192.701 220.851 194.761 220.206C200.973 218.258 207.125 215.791 213.006 213.002C223.077 208.226 234.056 201.733 239.347 191.513L239.442 191.325C240.736 193.653 242.354 195.835 243.815 198.059C246.03 201.43 248.167 204.89 250.244 208.349C256.994 219.595 263.056 231.274 271.466 241.436C278.082 249.43 286.267 256.021 293.48 263.432C313.041 283.529 330.28 307.114 340.475 333.376C344.545 343.857 347.136 354.714 349.346 365.701C354.518 391.422 357.343 425.381 336.74 445.452C334.413 447.72 331.9 449.845 329.284 451.775C327.149 453.348 324.782 454.768 322.499 456.124C320.945 457.046 317.497 458.71 316.76 460.396C317.071 460.814 316.908 460.746 317.331 460.862C320.194 461.646 324.892 458.891 327.289 457.449C332.466 454.335 337.532 450.54 341.546 446.001C347.937 438.771 351.841 429.523 354.089 420.218C355.78 413.223 355.9 406.245 355.937 399.105C355.995 387.838 355.394 376.56 353.339 365.445C351.642 355.228 348.648 345.11 345.015 335.427C338.225 317.328 328.965 300.39 317.5 284.834C313.014 278.748 308.229 272.68 303.053 267.161C293.044 256.486 281.276 247.14 272.023 235.826C267.742 230.593 264.346 224.311 260.826 218.551C255.305 209.515 249.852 200.465 243.975 191.655C240.985 187.172 239.439 183.272 238.748 177.92C238.625 176.966 238.357 175.315 238.546 174.396C238.577 174.247 239.096 173.65 239.191 173.52C239.882 172.571 240.539 171.597 241.211 170.635C244.203 166.358 247.198 162.437 249.462 157.677C253.8 148.554 255.365 138.849 257.307 129.043C256.408 130.263 255.73 131.848 255.076 133.215C252.587 138.42 251.17 144.026 249.147 149.407C246.258 157.091 241.288 164.543 235.751 170.573C227.971 179.047 219.148 186.31 209.156 192.036C199.336 197.664 186.71 200.545 179.274 209.495L179.055 209.762C178.142 209.143 177.05 208.398 175.995 208.046C173.121 207.089 168.462 207.825 165.784 209.053C165.074 209.379 163.455 210.525 162.79 210.456C159.545 206.902 155.143 203.504 152.918 199.193C151.398 196.249 151.07 192.685 152.098 189.505C152.898 188.804 155.636 190.037 156.729 190.321C166.164 192.776 176.499 192.579 186.006 190.657C197.767 188.278 207.99 182.829 214.701 172.587C218.412 166.922 221.294 158.951 219.707 152.133C218.182 145.576 212.379 141.935 206.972 138.765C211.309 142.905 216.253 148.605 216.885 154.791C217.502 160.837 214.789 166.748 211.008 171.323C203.615 180.265 190.761 186.195 179.296 187.172C168.695 188.075 156.948 187.463 147.541 182.036C145.401 180.802 143.373 179.069 141.494 177.469C135.762 172.59 131.615 164.396 131.084 156.875C130.451 147.911 134.318 136.657 140.321 129.967L142.487 127.671C152.126 118.454 170.312 117.743 182.51 121.446C186.318 122.601 189.973 124.198 193.816 125.241C194.642 125.465 195.747 125.885 196.602 125.85C197.15 125.827 197.276 125.64 197.643 125.284C197.544 124.491 197.32 123.919 196.794 123.301C194.759 120.912 190.653 119.981 187.723 119.22C180.048 117.226 172.54 116.348 164.633 115.903C165.111 114.538 165.758 113.028 166.019 111.61C166.513 108.925 166.087 105.411 164.396 103.217C162.972 101.368 160.669 100.45 158.418 100.131C155.148 99.6684 152.062 100.261 149.436 102.343C147.702 103.718 146.845 105.61 146.654 107.79C146.322 111.569 148.765 114.649 150.993 117.394L144.512 120.883C136.666 125.759 132.056 134.319 129.719 143.006C128.59 147.206 127.98 151.481 127.014 155.711C124.539 149.944 122.313 143.819 121.517 137.552C121.148 134.645 121.144 131.641 121.153 128.713C121.219 108.643 128.877 89.9932 135.876 71.5076C139.37 62.2803 142.699 53.1064 145.529 43.6518C141.747 49.3368 138.779 55.4309 135.153 61.1951C133.488 63.8422 131.552 66.2797 129.64 68.7504C122.576 77.8819 115.09 85.352 104.146 89.6261C101.433 90.686 98.5766 91.6527 95.6809 92.0212C92.9909 92.3643 89.7944 93.3272 87.5049 91.5623C87.0817 90.8181 86.9065 90.2185 86.9507 89.3565C87.389 80.8129 99.7246 61.0251 105.021 53.9411C108.524 49.2542 112.28 44.8801 116.59 40.9119C125.153 33.0282 137.439 25.8406 149.517 28.2287C152.923 28.9022 156.044 30.9605 159.564 31.1038L159.914 30.6894C159.894 29.9547 159.856 29.4356 159.402 28.8293C158.751 27.9571 157.674 27.412 156.714 26.9416C153.016 25.1297 148.932 24.5528 144.885 24.1146ZM234.229 179.047C234.83 182.843 235.604 186.413 236.729 190.096C236.75 190.161 236.812 190.227 236.79 190.293C236.68 190.63 236.181 191.224 235.974 191.547C231.716 198.179 224.309 202.799 217.567 206.554C208.158 211.795 198.137 216.163 187.584 218.472C187.158 218.565 186.787 218.605 186.355 218.613L185.504 217.013C184.684 215.153 183.923 213.63 182.633 212.059L181.957 211.209C185.962 205.4 194.616 202.425 200.887 199.591C205.342 197.578 209.821 195.543 214.115 193.2C221.093 189.391 228.404 184.517 234.229 179.047ZM171.965 210.51C175.893 211.33 179.429 212.446 181.722 215.993C183.004 217.975 183.256 220.681 182.811 222.987C182.313 225.569 179.854 228.63 177.672 229.95C176.354 230.747 174.702 231.104 173.173 230.995C169.581 230.314 167.042 228.731 165.012 225.633C163.426 223.211 161.478 219.33 162.245 216.416C162.749 214.501 164.777 212.918 166.443 212.049C168.094 211.187 170.103 210.647 171.965 210.51ZM149.44 200.167C151.961 202.581 153.72 205.195 155.869 207.911C157.413 209.864 159.1 211.731 160.535 213.765L158.672 217.47L158.443 218.09C157.689 218.09 157.041 217.546 156.535 217.028C152.593 212.991 148.777 205.955 148.943 200.213L149.44 200.167Z" fill="#AD1CAD"/>
</svg>
