<svg width="500" height="500" viewBox="0 0 500 500" fill="none" xmlns="http://www.w3.org/2000/svg">
<path d="M99.391 232.086C98.9371 232.1 99.1364 232.021 98.7965 232.335C99.1051 233.43 99.6052 234.415 100.21 235.374C101.858 237.989 104.021 240.459 107.174 241.135C110.813 241.916 113.674 240.331 116.627 238.397L117.505 237.542C117.891 236.976 117.737 236.685 117.622 236.054C116.17 235.409 113.119 237.674 111.51 238.146C105.834 239.807 103.801 234.442 99.6163 232.201L99.391 232.086Z" fill="#AD1CAD"/>
<path d="M99.1136 203.572C98.4703 203.734 98.1102 203.74 97.6531 204.279C96.8489 205.227 96.832 207.176 96.9166 208.377C97.3093 213.949 100.515 217.785 105.948 219.158C106.28 219.242 108.219 219.499 108.348 219.625C108.432 219.707 108.653 221.267 108.696 221.488C109.099 223.582 109.583 225.662 110.03 227.747C110.358 229.281 110.578 231.429 111.789 232.489L112.326 232.245C114.771 228.375 111.954 224.245 111.269 220.308L111.93 219.512C114.689 217.853 117.966 215.743 119.524 212.813C120.139 211.655 121.081 209.456 120.605 208.135C120.418 207.617 120.198 207.661 119.727 207.438C118.647 207.958 117.982 208.876 117.192 209.751C115.714 211.39 114.307 213.088 112.472 214.345C110.491 215.701 108.54 216.168 106.14 215.667C103.605 215.137 102.251 213.403 100.939 211.339C101.1 209.253 101.451 206.456 100.803 204.472C100.245 203.853 99.8891 203.741 99.1136 203.572Z" fill="#AD1CAD"/>
<path d="M152.26 314.16C151.993 314.189 151.772 314.306 151.525 314.408C151.345 315.353 151.417 316.048 151.648 316.983C152.528 320.544 153.794 324.07 154.966 327.549C159.503 341.021 166.315 354.947 178.893 362.511C179.19 362.547 179.466 362.526 179.763 362.511C179.815 360.986 178.819 360.076 177.904 358.954C176.084 356.72 174.087 354.639 172.256 352.415C167.853 347.065 164.199 340.908 161.501 334.527C159.673 330.205 158.322 325.721 156.693 321.325C155.904 319.197 154.37 315.127 152.26 314.16Z" fill="#AD1CAD"/>
<path d="M86.5149 208.779C85.8677 208.644 85.5961 208.648 84.9983 208.956C82.9393 210.016 81.6266 212.208 80.9566 214.355C78.9783 220.694 80.3998 227.422 83.3737 233.204C88.7269 243.611 98.06 251.151 109.177 254.654C109.907 254.808 110.949 254.98 111.642 254.674C112.056 254.491 112.104 254.045 112.266 253.659C111.276 250.864 104.202 248.812 101.694 247.281C99.3207 245.832 97.1211 244.068 95.0601 242.208C89.311 237.017 85.0172 230.253 83.9272 222.512C83.6687 220.675 83.5085 218.391 83.9884 216.588C84.5972 214.3 86.7942 211.626 86.5715 209.251L86.5149 208.779Z" fill="#AD1CAD"/>
<path d="M152.023 213.718C149.062 213.342 145.455 213.594 142.757 215.002C141.611 215.6 140.453 216.367 140.096 217.674C139.869 218.508 140.314 219.447 140.804 220.096C142.199 221.939 144.653 223.219 146.575 224.469C150.271 226.872 153.799 229.191 156.593 232.674C157.872 234.269 159.883 237.526 161.977 237.785L162.544 237.294C162.706 236.734 162.824 236.2 162.729 235.614C162.483 234.102 161.614 232.754 160.755 231.519C157.286 226.529 152.604 223.577 147.609 220.322L143.62 217.545C148.356 216.579 153.285 217.041 158.009 217.828C162.235 218.532 166.404 219.484 170.208 221.539C173.526 223.332 176.131 225.837 179.243 227.861C178.624 226.393 177.963 225.055 176.977 223.794C171.084 216.256 160.91 214.743 152.023 213.718Z" fill="#AD1CAD"/>
<path d="M108.261 257.378L107.785 257.514C107.29 258.899 107.342 260.376 107.205 261.828C106.586 268.398 106.853 274.879 107.218 281.455C107.527 287.004 107.855 292.602 108.677 298.103C109.577 304.134 110.852 310.032 112.52 315.896C115.932 327.891 121.585 339.103 129.638 348.654C133.049 352.7 136.67 356.333 141.331 358.926C141.799 359.13 141.86 359.123 142.367 359.04C142.386 358.221 142.15 357.634 141.671 356.977C139.276 353.692 136.323 350.844 133.7 347.747C129.539 342.837 125.765 336.998 122.864 331.252C114.848 315.369 111.373 297.459 110.096 279.818C109.731 274.771 109.625 269.689 109.281 264.635C109.126 262.358 109.183 259.486 108.261 257.378Z" fill="#AD1CAD"/>
<path d="M155.525 182.719C153.358 182.635 151.639 182.631 149.614 183.534C146.874 184.755 144.654 187.272 143.615 190.072C142.745 192.42 143.15 196.525 144.175 198.759C145.803 202.307 148.536 203.959 152.075 205.242C154.372 205.524 156.804 205.457 158.797 204.151C161.388 202.452 163.148 199.133 163.783 196.17C164.447 193.077 164.339 189.557 162.51 186.857C160.878 184.447 158.285 183.239 155.525 182.719Z" fill="#AD1CAD"/>
<path d="M140.059 279.446C139.637 279.319 139.416 279.311 138.971 279.408C137.804 279.664 136.951 280.893 136.442 281.884C134.738 285.204 134.107 289.168 133.7 292.836C133.293 296.514 133.476 300.408 133.418 304.118C133.347 308.627 133.393 313.123 133.438 317.631C133.469 320.773 133.387 324.029 133.728 327.155C134.368 333.019 135.496 338.428 137.315 344.025C139.031 349.306 141.544 354.442 144.286 359.261C146.825 363.725 149.455 368.094 152.719 372.076C158.831 379.531 167.849 386.309 176.41 390.665C177.008 390.839 177.589 391.055 178.219 390.986C178.601 390.945 178.898 390.613 179.075 390.282C179.863 388.811 175.979 386.248 174.916 385.454C172.531 383.674 169.959 382.051 167.649 380.191C158.648 372.941 151.204 364.29 145.915 353.996C141.054 344.533 138.469 334.378 137.448 323.825C137.068 319.895 137.107 315.84 137.015 311.889C136.883 306.162 136.83 300.014 137.449 294.324C137.672 292.276 137.999 290.146 138.415 288.129C138.848 286.038 140.8 281.357 140.059 279.446Z" fill="#AD1CAD"/>
<path d="M246.556 35.6154C242.594 35.4549 239.415 37.5443 236.537 40.0396C230.305 45.4419 224.843 52.2331 220.697 59.3434C213.176 72.2423 208.74 86.5506 203.796 100.546C198.369 115.911 191.72 131.264 190.461 147.687C193.204 141.712 195.218 135.198 197.372 128.98C200.495 119.96 203.821 111.012 206.928 101.986C212.899 84.6379 218.346 66.6307 230.199 52.1881C232.622 49.2355 240.677 39.9939 244.349 39.7234C245.42 39.6445 245.515 39.9536 246.289 40.6512C247.936 44.3037 246.336 49.6532 245.547 53.4216C243.684 62.3233 240.906 70.985 237.224 79.3078C231.105 93.1418 222.876 105.949 214.958 118.793C209.969 126.888 204.635 134.786 200.836 143.542C199.606 146.379 198.718 149.41 197.78 152.357C201.323 148.749 203.668 144.398 206.242 140.094C208.854 135.726 211.48 131.366 214.127 127.021C219.679 117.906 225.609 108.963 230.837 99.6587C236.855 88.9497 242.36 78.035 245.879 66.2274C247.259 61.5981 248.126 56.9774 248.952 52.2305C249.618 48.4046 250.496 42.5809 249.338 38.8211L249.206 38.4334L249.097 38.096C248.648 36.8083 247.728 36.1997 246.556 35.6154Z" fill="#AD1CAD"/>
<path d="M423.208 390.451C418.205 390.271 413.983 393.191 410.473 396.451C400.748 405.483 395.747 417.379 388.366 428.117C385.799 431.851 382.77 435.032 379.477 438.13C375.745 441.641 370.803 444.543 366.065 446.454C364.347 447.146 362.332 447.619 360.719 448.5C359.789 449.008 359.674 449.483 359.38 450.411L359.727 450.936C361.162 451.313 362.766 450.951 364.192 450.652C368.028 449.85 371.745 448.116 375.107 446.145C381.786 442.228 387.559 436.544 391.975 430.209C396.155 424.213 399.423 417.635 403.369 411.49C406.869 406.04 414.503 396.153 421.246 394.905C422.759 394.625 424.001 394.923 425.245 395.822C426.782 396.934 427.44 398.59 427.756 400.399C428.05 402.087 428.414 403.944 428.47 405.656C428.536 407.702 428.192 409.766 427.899 411.785C426.473 421.602 422.09 430.16 416.495 438.219C409.624 447.615 399.297 456.164 387.51 458.249C382.4 459.154 377.008 458.971 371.833 459.093C366.077 459.23 360.858 459.266 355.427 461.389C356.647 462.174 358.682 462.443 360.099 462.605C362.956 462.932 365.763 463.093 368.636 463.169C375.689 463.357 382.75 463.267 389.804 463.285C393.226 463.294 396.724 463.161 400.134 463.43C405.626 463.862 411.357 463.823 416.871 463.908C420.015 463.957 423.801 464.344 426.865 463.721C427.273 463.638 427.515 463.446 427.822 463.181L427.815 462.437C424.826 460.292 419.722 460.466 416.17 460.206C409.779 459.738 403.391 459.387 396.983 459.316C397.582 458.535 398.932 457.911 399.78 457.42C401.839 456.227 403.913 455.062 405.983 453.886C408.748 452.315 411.161 450.264 413.458 448.077C421.044 440.853 427.096 430.891 429.825 420.781C431.502 414.57 432.424 407.65 431.794 401.215C431.545 398.669 431.023 396.001 429.646 393.801C428.28 391.619 425.548 390.917 423.208 390.451Z" fill="#AD1CAD"/>
<path d="M210.953 158.366C210.587 163.03 211.493 167.437 211.616 172.051C211.882 182.115 211.85 192.246 211.586 202.311C211.455 207.282 210.579 212.37 209.956 217.305C209.073 224.292 208.456 231.415 208.447 238.461C208.443 242.095 208.619 246.508 210.276 249.816C211.405 252.07 213.789 254.014 215.57 255.786C217.297 257.506 218.861 259.361 220.771 260.893C225.771 264.9 232.836 265.668 238.764 267.632C251.498 271.852 263.02 277.633 274.517 284.508C282.624 289.355 290.597 294.44 298.069 300.233C307.905 307.86 316.716 316.416 325.057 325.628C333.913 335.409 341.925 345.893 347.865 357.71C360.589 383.023 365.017 411.992 357.755 439.61C356.229 445.412 353.503 450.563 351.632 456.211L354.157 454.454C356.108 452.536 358.402 450.04 359.417 447.484C363.313 437.682 364.564 427.363 365.111 416.937C366.075 398.588 362.168 379.851 354.872 363.027C348.852 349.144 340.267 336.565 330.454 325.099C322.295 315.566 313.562 306.771 303.776 298.874C296.86 293.292 289.465 288.288 281.96 283.544C274.374 278.748 266.508 274.251 258.299 270.596C253.038 268.254 247.728 266.07 242.269 264.224C233.84 261.374 225.239 259.012 217.001 255.624C216.169 255.281 214.889 254.709 214.553 253.807L214.459 253.534C209.426 240.107 213.269 225.175 214.508 211.414C216.104 193.696 216.512 175.441 210.953 158.366Z" fill="#AD1CAD"/>
<path d="M252.59 20.0126C245.75 19.8001 240.038 22.2933 234.381 25.8918C226.272 31.0512 219.363 37.7947 212.244 44.1719C204.809 50.8318 197.544 57.9937 192.218 66.4949C184.358 79.0441 181.582 94.1105 179.298 108.499C178.315 114.691 177.827 121.056 176.475 127.174C165.361 125.304 154.371 124.659 143.143 125.818C142.733 121.4 141.886 117.049 141.332 112.655C139.085 94.8488 136.427 76.8664 127.951 60.7908C122.955 51.3143 115.608 42.1635 106.978 35.7426C101.835 31.9168 96.0721 28.9955 90.2234 26.4274C87.0261 25.0238 83.8296 23.5508 80.4826 22.5299C77.7386 21.6928 73.8023 21.2611 71.223 22.731C69.069 23.9586 68.074 26.2067 67.4762 28.5183C66.295 33.0868 67.9366 38.7885 69.4942 43.0915C71.1078 47.5485 73.7098 51.5187 76.0241 55.6238C78.4542 59.9339 80.6421 64.2364 82.6125 68.7742C86.416 77.533 89.3846 86.6958 92.7915 95.619C95.4411 102.56 98.1428 109.54 101.254 116.288C104.509 123.349 108.397 130.349 112.297 137.077C102.318 145.306 94.2514 154.511 90.1563 166.995C87.9254 173.795 87.3927 180.985 87.493 188.099C87.5367 191.199 87.4064 194.424 88.9366 197.239C89.4947 198.265 90.3171 199.247 91.4475 199.551C92.1208 199.287 92.5187 199.04 92.9374 198.434C95.2073 195.154 94.7978 188.834 94.1915 185.099C93.9695 183.73 93.0904 180.345 91.9112 179.594C91.5322 179.352 91.4684 179.3 91.2756 178.9C91.7861 175.51 92.1508 172.15 93.1594 168.858C96.8919 156.675 106.255 146.573 116.424 139.263C119.736 136.881 123.526 135.093 126.7 132.574C126.774 131.138 126.041 129.219 125.687 127.816C125.124 125.588 124.641 123.341 124.174 121.091C122.731 114.127 121.255 107.154 119.845 100.186C117.006 86.1476 113.616 71.5636 106.68 58.907C100.822 48.2174 92.3696 39.0753 80.3712 35.609C84.8994 39.2601 89.6685 42.743 93.7806 46.8732C104.589 57.7304 109.567 72.7327 113.271 87.2108L122.122 131.568C119.734 132.413 117.26 133.927 115.041 135.145C113.986 133.31 113.149 131.373 112.155 129.507C105.6 117.195 100.267 104.657 95.4183 91.5864C92.1371 82.742 89.1626 73.8091 85.5298 65.0967C82.1092 56.8941 76.5587 49.6717 73.4585 41.3911C72.078 37.7047 71.4457 34.4593 71.5916 30.5245C71.6385 29.2584 71.979 27.9635 73.0515 27.1554C74.1155 26.3539 75.4029 26.2836 76.6883 26.4204C80.2449 26.7992 83.9058 28.365 87.1609 29.7758C99.3064 35.0388 109.112 42.3034 117.37 52.6507C130.659 69.3009 135.462 91.5675 137.486 112.295C137.884 116.374 138.989 120.607 138.877 124.702C138.831 126.372 138.379 128.096 138.19 129.769C140.661 129.932 143.135 129.432 145.583 129.181C147.73 128.96 150.007 128.873 152.165 128.911C161.373 129.072 170.294 130.437 179.437 131.143C180.666 124.471 181.493 117.672 182.514 110.96C184.41 98.4979 186.545 85.6333 192.265 74.2637C198.715 61.4443 210.5 50.8465 221.25 41.5984C227.545 36.1835 241.89 23.753 250.54 24.6986C252.331 24.8945 254.05 25.9911 255.125 27.4175C256.98 29.8782 256.784 33.0828 256.725 35.9977C256.644 40.0108 256.332 43.7964 255.816 47.7786C253.788 63.4117 250.708 79.3755 244.091 93.7947C240.426 101.782 235.853 109.772 231.197 117.218C228.832 120.999 226.348 124.736 223.762 128.37C221.769 131.173 219.765 133.982 217.72 136.748C215.706 139.47 213.78 142.106 211.923 144.941C210.552 147.034 209.057 149.463 208.774 152.009C208.67 152.944 208.794 153.624 209.401 154.36L209.897 154.355C211.352 153.084 212.393 151.336 213.437 149.729C214.704 147.779 215.981 145.851 217.325 143.954C229.972 126.094 243.313 108.027 250.802 87.2602C254.72 76.3969 256.885 65.0511 258.844 53.7018C259.587 49.3973 260.186 45.1104 260.621 40.7631C260.832 38.6575 261.124 36.5632 261.087 34.442C261.031 31.3129 260.631 27.8003 259.226 24.9645C258.168 22.8322 256.122 21.1498 253.866 20.3826L252.59 20.0126Z" fill="#AD1CAD"/>
<path d="M264.9 359.275C263.525 359.027 261.924 359.118 260.522 359.091C257.248 359.03 253.807 359.04 250.552 359.43C238.277 360.902 227.612 366.493 219.948 376.252C211.721 386.729 209.561 402.23 211.16 415.184C212.689 427.565 217.44 439.262 226.167 448.343C229.257 451.558 232.872 454.44 236.397 457.167C226.397 456.957 216.746 456.183 206.717 457.014C202.559 457.358 198.679 458.325 195.41 461.071C194.307 461.997 193.377 463.214 192.449 464.312L177.277 464.308C171.686 463.962 162.765 463.137 158.879 458.725C158.533 457.412 158.025 455.975 158.375 454.624L158.481 454.255C160.58 446.184 171.003 446.499 177.7 446.372C180.641 446.316 184.666 446.612 186.898 444.337C187.119 442.094 186.26 440.72 185.54 438.685C182.948 431.359 183.202 422.523 183.244 414.801C183.308 402.617 184.25 390.762 186.508 378.782C186.891 376.75 187.6 374.225 187.193 372.182C186.773 371.85 186.844 371.766 186.263 371.823C185.552 371.893 184.973 372.245 184.574 372.839C182.921 375.291 182.702 379.117 182.274 381.976C181.577 386.642 180.824 391.188 180.49 395.91C180.3 398.596 180.374 401.298 180.206 403.985C179.764 411.082 179.438 418.37 179.814 425.475C180.104 430.968 181.003 436.365 181.957 441.772C179.093 441.986 176.24 442.209 173.372 442.372C168.029 442.678 162.499 442.928 158.22 446.585C154.834 449.477 154.397 453.62 154.16 457.803C149.159 457.823 144.058 458.062 139.076 457.653C136.964 457.48 134.978 457.388 132.925 456.827C130.733 456.227 128.686 454.856 127.634 452.777C127.079 451.678 126.624 450.1 127.041 448.913L127.18 448.551C128.098 446.023 129.662 444.535 131.965 443.187C138.402 439.422 146.513 440.861 153.358 442.59C151.754 436.533 150.513 430.775 150.087 424.5C149.529 416.293 149.838 408.066 149.706 399.848C149.654 396.599 149.375 393.396 149.184 390.158C148.844 384.361 148.634 377.245 146.257 371.898C145.799 370.867 145.076 369.966 144.39 369.079C144.032 373.415 144.797 377.676 145.151 381.965C145.435 385.397 145.521 388.977 145.675 392.426C146.011 399.985 146.083 407.532 146.213 415.096C146.281 419.057 146.21 423.16 146.546 427.104C146.809 430.184 147.282 433.31 147.708 436.376C143.981 436.749 140.261 436.316 136.525 436.904C132.12 437.596 127.695 440.149 125.116 443.828C123.594 445.999 122.53 449.184 123.123 451.82C123.772 454.707 126.661 457.175 129.059 458.675L129.387 458.877C125.591 459.079 121.792 459.217 117.995 459.4C114.821 459.553 111.682 459.571 108.696 460.777C108.294 460.94 108.473 460.807 108.251 461.326C108.63 461.641 109.015 461.745 109.483 461.883C112.458 462.76 116.028 462.37 119.107 462.359C125.309 462.337 131.514 462.107 137.711 462.091C141.894 462.079 146.247 462.603 150.409 462.171C152.31 461.973 153.694 461.615 155.362 460.705L155.679 460.53C157.194 461.438 158.579 463.22 159.914 464.447L159.286 464.374C157.046 464.19 154.194 463.961 152.391 465.51L152.529 465.96C155.455 467.251 159.593 467.111 162.766 467.337C172.239 468.009 182.167 468.652 191.655 468.245C192.272 469.833 192.92 471.328 193.958 472.693C194.589 473.524 195.436 474.282 195.923 475.199L182.901 475.283C181.755 475.338 181.045 475.322 180.253 476.199L180.524 476.622C182.004 477.109 183.358 477.271 184.906 477.392L292.869 480.839C304.561 480.79 316.012 479.924 327.348 476.952C331.813 475.782 336.977 474.367 340.264 470.932C341.335 469.813 342.153 468.727 342.123 467.135L341.619 466.868C339.103 467.593 336.867 468.824 334.445 469.782C327.234 472.634 319.362 474.481 311.639 475.225C301.674 476.184 291.889 476.225 281.891 476.223C262.93 476.218 244.136 475.316 225.2 474.583C219.934 474.38 214.664 474.508 209.401 474.257C206.096 474.099 202.274 474.103 199.219 472.686C198.013 472.127 196.414 471.214 195.992 469.859C195.562 468.48 195.859 466.501 196.627 465.289C198.341 462.589 201.877 461.479 204.812 460.76C208.593 459.836 212.677 460.253 216.531 460.311C223.762 460.423 230.971 460.568 238.177 461.264C244.821 461.905 251.545 463.361 258.076 464.73C255.571 463.213 252.764 462.209 250.095 461.016C246.37 459.351 242.381 457.324 239.087 454.911C225.465 444.935 217.345 431.565 214.851 414.81C213.119 403.163 214.756 388.95 222.014 379.32C228.648 370.517 238.96 365.489 249.747 364.033C263.515 362.175 278.706 364.499 291.386 370.098C297.896 372.973 304.336 377.152 309.99 381.458C317.94 387.513 325.083 394.596 331.355 402.367C338.789 411.578 345.208 421.864 347.206 433.701C347.706 436.665 347.995 439.959 347.911 442.973C347.815 446.474 347.403 449.522 347.884 453.04C349.885 449.762 351.233 446.93 351.458 443.044C352.563 423.946 342.304 407.79 330.099 394.069C317.242 379.616 299.64 366.589 280.728 361.56C275.505 360.171 270.279 359.592 264.9 359.275Z" fill="#AD1CAD"/>
</svg>
